<?xml version="1.0" encoding="utf-8"?>
<!-- Generator: Adobe Illustrator 16.0.0, SVG Export Plug-In . SVG Version: 6.00 Build 0)  -->
<!DOCTYPE svg PUBLIC "-//W3C//DTD SVG 1.1//EN" "http://www.w3.org/Graphics/SVG/1.1/DTD/svg11.dtd">
<svg version="1.1" id="Layer_1" xmlns="http://www.w3.org/2000/svg" xmlns:xlink="http://www.w3.org/1999/xlink" x="0px" y="0px"
	 width="2000px" height="2000px" viewBox="0 0 2000 2000" enable-background="new 0 0 2000 2000" xml:space="preserve">
<path fill="#FFFFFF" d="M959.986,1402.928c-21.522,0-39.032,17.508-39.032,39.029c0,21.522,17.51,39.04,39.032,39.04
	s39.038-17.518,39.038-39.04C999.024,1420.436,981.508,1402.928,959.986,1402.928"/>
<path fill="#FFFFFF" d="M999.803,96.371c-498.949,0-903.429,404.479-903.429,903.434c0,498.95,404.48,903.429,903.429,903.429
	s903.429-404.479,903.429-903.429C1903.232,500.851,1498.753,96.371,999.803,96.371 M1257.244,530.207l-257.441,686.517
	L742.358,530.207H1257.244z M703.863,1510.572h-49.725l-36.243-50.149l-54.284,57.439v-144.75h38.76v54.76l50.973-54.76h34.985
	h12.09h3.876l-58.16,59.844L703.863,1510.572z M857.158,1510.572h-32.925l-63.534-79.648v79.648h-36.206v-137.46h35.543
	l61.062,78.121v-78.121h36.06V1510.572z M959.989,1516.629c-41.172,0-74.665-33.502-74.665-74.672
	c0-41.169,33.493-74.662,74.665-74.662s74.664,33.493,74.664,74.662C1034.653,1483.127,1001.161,1516.629,959.989,1516.629
	 M1169.398,1408.312h-40.242v102.261h-0.28h-39.188h-0.28l0.209-102.261h-40.451v-35.301h40.522h39.188h0.28h40.242V1408.312z
	 M1300.689,1405.673h-68.146v20.59h48.637v0.041v30.028v0.938h-48.637v20.87h68.146v32.428h-105.882v-137.557h105.882V1405.673z
	 M1435.995,1510.572h-61.352h-43.787v-137.562h43.772l0.02,137.557l61.347-60.735V1510.572z"/>
</svg>
